<svg width="59" height="53" viewBox="0 0 59 53" fill="none" xmlns="http://www.w3.org/2000/svg">
<path d="M58.029 26.3975C58.029 40.8302 45.1113 52.5675 29.1283 52.5675C13.1453 52.5675 0.227565 40.8302 0.227565 26.3975C0.227565 11.9648 13.1453 0.227565 29.1283 0.227565C45.1113 0.227565 58.029 11.9648 58.029 26.3975Z" fill="black" stroke="black" stroke-width="0.45513"/>
<g clip-path="url(#clip0_13_2591)">
<path d="M43.5425 33.4191L38.734 38.0225C38.6294 38.1225 38.5029 38.2022 38.3624 38.2567C38.2219 38.3112 38.0703 38.3393 37.9171 38.3392H15.1224C15.0136 38.3392 14.9072 38.3108 14.8163 38.2576C14.7253 38.2043 14.6538 38.1285 14.6104 38.0395C14.5671 37.9505 14.5538 37.8521 14.5722 37.7564C14.5907 37.6607 14.64 37.5719 14.7142 37.5009L19.5264 32.8975C19.6306 32.7978 19.7567 32.7182 19.8968 32.6638C20.0369 32.6093 20.188 32.5811 20.3408 32.5808H43.1342C43.243 32.5808 43.3494 32.6092 43.4404 32.6624C43.5312 32.7157 43.6028 32.7915 43.6463 32.8805C43.6896 32.9696 43.7028 33.068 43.6844 33.1636C43.6659 33.2593 43.6166 33.3481 43.5425 33.4191ZM38.734 24.1492C38.6294 24.0492 38.5029 23.9695 38.3624 23.915C38.2219 23.8605 38.0703 23.8325 37.9171 23.8325H15.1224C15.0136 23.8325 14.9072 23.8609 14.8163 23.9141C14.7253 23.9674 14.6538 24.0432 14.6104 24.1322C14.5671 24.2213 14.5538 24.3197 14.5722 24.4154C14.5907 24.511 14.64 24.5998 14.7142 24.6708L19.5264 29.2742C19.6306 29.3739 19.7567 29.4535 19.8968 29.508C20.0369 29.5624 20.188 29.5907 20.3408 29.5909H43.1342C43.243 29.5909 43.3494 29.5625 43.4404 29.5093C43.5312 29.456 43.6028 29.3802 43.6463 29.2912C43.6896 29.2022 43.7028 29.1037 43.6844 29.0081C43.6659 28.9124 43.6166 28.8236 43.5425 28.7526L38.734 24.1492ZM15.1224 20.8426H37.9171C38.0703 20.8427 38.2219 20.8146 38.3624 20.7601C38.5029 20.7056 38.6294 20.6259 38.734 20.5259L43.5425 15.9225C43.6166 15.8515 43.6659 15.7627 43.6844 15.6671C43.7028 15.5714 43.6896 15.473 43.6463 15.3839C43.6028 15.2949 43.5312 15.2191 43.4404 15.1658C43.3494 15.1126 43.243 15.0842 43.1342 15.0842H20.3408C20.188 15.0845 20.0369 15.1127 19.8968 15.1672C19.7567 15.2216 19.6306 15.3012 19.5264 15.4009L14.7155 20.0043C14.6413 20.0752 14.592 20.1639 14.5735 20.2595C14.555 20.3551 14.5682 20.4534 14.6114 20.5424C14.6546 20.6314 14.726 20.7072 14.8167 20.7605C14.9075 20.8139 15.0137 20.8424 15.1224 20.8426Z" fill="url(#paint0_linear_13_2591)"/>
</g>
<defs>
<linearGradient id="paint0_linear_13_2591" x1="17.0229" y1="38.8934" x2="37.9421" y2="12.4757" gradientUnits="userSpaceOnUse">
<stop offset="0.08" stop-color="#9945FF"/>
<stop offset="0.3" stop-color="#8752F3"/>
<stop offset="0.5" stop-color="#5497D5"/>
<stop offset="0.6" stop-color="#43B4CA"/>
<stop offset="0.72" stop-color="#28E0B9"/>
<stop offset="0.97" stop-color="#19FB9B"/>
</linearGradient>
<clipPath id="clip0_13_2591">
<rect width="29.1283" height="23.255" fill="white" transform="translate(14.5641 15.0842)"/>
</clipPath>
</defs>
</svg>
